<?xml version="1.0" encoding="UTF-8"?>
<!-- Generated by Pixelmator Pro 4.2 -->
<svg width="159" height="158" viewBox="0 0 159 158" xmlns="http://www.w3.org/2000/svg">
    <path id="Path" fill="#000000" stroke="none" d="M 158.800003 152.399994 C 158.800003 155.5 156.300003 158.100006 153.100006 158.100006 L 85.100006 158.100006 C 82 158.100006 79.399994 155.600006 79.399994 152.399994 L 79.399994 136.899994 C 79.699997 117.899994 81.699997 99.699997 85.899994 91.399994 C 88.399994 86.399994 92.600006 83.699997 97.399994 82.300003 C 106.5 79.600006 122.300003 81.399994 129.100006 81.100006 C 129.100006 81.100006 149.5 81.899994 149.5 70.399994 C 149.5 58.899994 140.399994 61.800003 140.399994 61.800003 C 130.399994 62.100006 122.699997 61.399994 117.800003 59.399994 C 109.5 56.100006 109.199997 50.199997 109.199997 48.199997 C 108.800003 25.100006 74.699997 22.300003 44.699997 28.100006 C 11.900002 34.300003 45.099998 81.399994 45.099998 144.199997 L 45.099998 152.600006 C 45.099998 155.699997 42.5 158.199997 39.400002 158.199997 L 5.700001 158.199997 C 2.599998 158.199997 0 155.699997 0 152.5 L 0 8.5 C 0 5.399994 2.5 2.800003 5.700001 2.800003 L 37.400002 2.800003 C 40.5 2.800003 43.099998 5.300003 43.099998 8.5 C 43.099998 13.199997 48.300003 15.699997 52.099998 13 C 63.5 4.800003 78.100006 0.5 94.5 0.5 C 131.100006 0.5 158.899994 21.899994 158.899994 69.199997 L 158.899994 152.399994 Z M 98 52.300003 C 98 45.600006 92.600006 40.199997 85.899994 40.199997 C 79.199997 40.199997 73.800003 45.600006 73.800003 52.300003 C 73.800003 59 79.199997 64.399994 85.899994 64.399994 C 92.600006 64.399994 98 59 98 52.300003 Z"/>
</svg>
